<mxfile host="app.diagrams.net" agent="Mozilla/5.0 (Windows NT 10.0; Win64; x64) AppleWebKit/537.36 (KHTML, like Gecko) Chrome/128.0.0.0 Safari/537.36 OPR/114.0.0.0 (Edition std-1)" version="24.9.2">
  <diagram name="PÃ¡gina-1" id="3irZiICbk0D-OemRNdAP">
    <mxGraphModel dx="1009" dy="573" grid="1" gridSize="10" guides="1" tooltips="1" connect="1" arrows="1" fold="1" page="1" pageScale="1" pageWidth="827" pageHeight="1169" math="0" shadow="0">
      <root>
        <mxCell id="0" />
        <mxCell id="1" parent="0" />
        <mxCell id="bvm1Z8GQnfWaPhaKX7ed-1" value="" style="whiteSpace=wrap;html=1;aspect=fixed;fillColor=#1ba1e2;fontColor=#ffffff;strokeColor=#006EAF;" vertex="1" parent="1">
          <mxGeometry x="20" y="20" width="460" height="460" as="geometry" />
        </mxCell>
        <mxCell id="bvm1Z8GQnfWaPhaKX7ed-2" value="" style="endArrow=none;html=1;rounded=0;exitX=-0.003;exitY=0.047;exitDx=0;exitDy=0;exitPerimeter=0;entryX=1.001;entryY=0.047;entryDx=0;entryDy=0;entryPerimeter=0;" edge="1" parent="1" source="bvm1Z8GQnfWaPhaKX7ed-1" target="bvm1Z8GQnfWaPhaKX7ed-1">
          <mxGeometry width="50" height="50" relative="1" as="geometry">
            <mxPoint x="390" y="250" as="sourcePoint" />
            <mxPoint x="440" y="200" as="targetPoint" />
          </mxGeometry>
        </mxCell>
        <mxCell id="bvm1Z8GQnfWaPhaKX7ed-3" value="" style="ellipse;whiteSpace=wrap;html=1;aspect=fixed;fillColor=none;" vertex="1" parent="1">
          <mxGeometry x="450" y="20" width="20" height="20" as="geometry" />
        </mxCell>
        <mxCell id="bvm1Z8GQnfWaPhaKX7ed-4" value="" style="ellipse;whiteSpace=wrap;html=1;aspect=fixed;fillColor=none;" vertex="1" parent="1">
          <mxGeometry x="430" y="20" width="20" height="20" as="geometry" />
        </mxCell>
        <mxCell id="bvm1Z8GQnfWaPhaKX7ed-5" value="" style="ellipse;whiteSpace=wrap;html=1;aspect=fixed;fillColor=none;" vertex="1" parent="1">
          <mxGeometry x="410" y="20" width="20" height="20" as="geometry" />
        </mxCell>
        <mxCell id="bvm1Z8GQnfWaPhaKX7ed-6" value="&lt;font color=&quot;#ffffff&quot; style=&quot;font-size: 14px;&quot;&gt;Manejo de turnos&lt;/font&gt;" style="text;html=1;align=center;verticalAlign=middle;whiteSpace=wrap;rounded=0;" vertex="1" parent="1">
          <mxGeometry x="10" y="15" width="140" height="30" as="geometry" />
        </mxCell>
        <mxCell id="bvm1Z8GQnfWaPhaKX7ed-7" value="&lt;font color=&quot;#ffffff&quot; style=&quot;font-size: 25px;&quot;&gt;Limpieza&lt;/font&gt;&lt;hr&gt;" style="text;html=1;align=center;verticalAlign=middle;whiteSpace=wrap;rounded=0;" vertex="1" parent="1">
          <mxGeometry x="120" y="50" width="110" height="40" as="geometry" />
        </mxCell>
        <mxCell id="bvm1Z8GQnfWaPhaKX7ed-8" value="&lt;font color=&quot;#ffffff&quot;&gt;&lt;span style=&quot;font-size: 25px;&quot;&gt;Seguridad&lt;/span&gt;&lt;/font&gt;" style="text;html=1;align=center;verticalAlign=middle;whiteSpace=wrap;rounded=0;" vertex="1" parent="1">
          <mxGeometry x="270" y="50" width="110" height="40" as="geometry" />
        </mxCell>
        <mxCell id="bvm1Z8GQnfWaPhaKX7ed-9" value="&lt;div style=&quot;text-align: left;&quot;&gt;&lt;span style=&quot;font-size: 16px; color: rgb(255, 255, 255); background-color: initial;&quot;&gt;Nombre del empleado:&lt;/span&gt;&lt;/div&gt;&lt;div style=&quot;text-align: left;&quot;&gt;&lt;span style=&quot;font-size: 16px; color: rgb(255, 255, 255); background-color: initial;&quot;&gt;Estado de turno:&lt;/span&gt;&lt;/div&gt;&lt;div style=&quot;text-align: left;&quot;&gt;&lt;font style=&quot;font-size: 16px;&quot; color=&quot;#ffffff&quot;&gt;&lt;br&gt;&lt;/font&gt;&lt;/div&gt;" style="text;html=1;align=center;verticalAlign=middle;whiteSpace=wrap;rounded=0;" vertex="1" parent="1">
          <mxGeometry x="100" y="130" width="185" height="20" as="geometry" />
        </mxCell>
        <mxCell id="bvm1Z8GQnfWaPhaKX7ed-10" value="" style="rounded=1;whiteSpace=wrap;html=1;strokeColor=none;fillColor=#99CCFF;" vertex="1" parent="1">
          <mxGeometry x="110" y="170" width="70" height="30" as="geometry" />
        </mxCell>
        <mxCell id="bvm1Z8GQnfWaPhaKX7ed-11" value="&lt;font color=&quot;#ffffff&quot;&gt;Volver&lt;/font&gt;" style="text;html=1;align=center;verticalAlign=middle;whiteSpace=wrap;rounded=0;" vertex="1" parent="1">
          <mxGeometry x="115" y="170" width="60" height="30" as="geometry" />
        </mxCell>
        <mxCell id="bvm1Z8GQnfWaPhaKX7ed-12" value="" style="whiteSpace=wrap;html=1;aspect=fixed;fillColor=#1ba1e2;fontColor=#ffffff;strokeColor=#006EAF;" vertex="1" parent="1">
          <mxGeometry x="500" y="20" width="460" height="460" as="geometry" />
        </mxCell>
        <mxCell id="bvm1Z8GQnfWaPhaKX7ed-13" value="" style="endArrow=none;html=1;rounded=0;exitX=-0.003;exitY=0.047;exitDx=0;exitDy=0;exitPerimeter=0;entryX=1.001;entryY=0.047;entryDx=0;entryDy=0;entryPerimeter=0;" edge="1" source="bvm1Z8GQnfWaPhaKX7ed-12" target="bvm1Z8GQnfWaPhaKX7ed-12" parent="1">
          <mxGeometry width="50" height="50" relative="1" as="geometry">
            <mxPoint x="870" y="250" as="sourcePoint" />
            <mxPoint x="920" y="200" as="targetPoint" />
          </mxGeometry>
        </mxCell>
        <mxCell id="bvm1Z8GQnfWaPhaKX7ed-14" value="" style="ellipse;whiteSpace=wrap;html=1;aspect=fixed;fillColor=none;" vertex="1" parent="1">
          <mxGeometry x="930" y="20" width="20" height="20" as="geometry" />
        </mxCell>
        <mxCell id="bvm1Z8GQnfWaPhaKX7ed-15" value="" style="ellipse;whiteSpace=wrap;html=1;aspect=fixed;fillColor=none;" vertex="1" parent="1">
          <mxGeometry x="910" y="20" width="20" height="20" as="geometry" />
        </mxCell>
        <mxCell id="bvm1Z8GQnfWaPhaKX7ed-16" value="" style="ellipse;whiteSpace=wrap;html=1;aspect=fixed;fillColor=none;" vertex="1" parent="1">
          <mxGeometry x="890" y="20" width="20" height="20" as="geometry" />
        </mxCell>
        <mxCell id="bvm1Z8GQnfWaPhaKX7ed-17" value="&lt;font color=&quot;#ffffff&quot; style=&quot;font-size: 14px;&quot;&gt;Manejo de turnos&lt;/font&gt;" style="text;html=1;align=center;verticalAlign=middle;whiteSpace=wrap;rounded=0;" vertex="1" parent="1">
          <mxGeometry x="490" y="15" width="140" height="30" as="geometry" />
        </mxCell>
        <mxCell id="bvm1Z8GQnfWaPhaKX7ed-19" value="&lt;font color=&quot;#ffffff&quot;&gt;&lt;span style=&quot;font-size: 25px;&quot;&gt;Seguridad&lt;/span&gt;&lt;/font&gt;&lt;hr&gt;" style="text;html=1;align=center;verticalAlign=middle;whiteSpace=wrap;rounded=0;" vertex="1" parent="1">
          <mxGeometry x="750" y="50" width="110" height="40" as="geometry" />
        </mxCell>
        <mxCell id="bvm1Z8GQnfWaPhaKX7ed-20" value="&lt;div style=&quot;text-align: left;&quot;&gt;&lt;span style=&quot;font-size: 16px; color: rgb(255, 255, 255); background-color: initial;&quot;&gt;Nombre del empleado:&lt;/span&gt;&lt;/div&gt;&lt;div style=&quot;text-align: left;&quot;&gt;&lt;span style=&quot;font-size: 16px; color: rgb(255, 255, 255); background-color: initial;&quot;&gt;Estado de turno:&lt;/span&gt;&lt;/div&gt;&lt;div style=&quot;text-align: left;&quot;&gt;&lt;font style=&quot;font-size: 16px;&quot; color=&quot;#ffffff&quot;&gt;&lt;br&gt;&lt;/font&gt;&lt;/div&gt;" style="text;html=1;align=center;verticalAlign=middle;whiteSpace=wrap;rounded=0;" vertex="1" parent="1">
          <mxGeometry x="580" y="130" width="185" height="20" as="geometry" />
        </mxCell>
        <mxCell id="bvm1Z8GQnfWaPhaKX7ed-21" value="" style="rounded=1;whiteSpace=wrap;html=1;strokeColor=none;fillColor=#99CCFF;" vertex="1" parent="1">
          <mxGeometry x="590" y="170" width="70" height="30" as="geometry" />
        </mxCell>
        <mxCell id="bvm1Z8GQnfWaPhaKX7ed-22" value="&lt;font color=&quot;#ffffff&quot;&gt;Volver&lt;/font&gt;" style="text;html=1;align=center;verticalAlign=middle;whiteSpace=wrap;rounded=0;" vertex="1" parent="1">
          <mxGeometry x="595" y="170" width="60" height="30" as="geometry" />
        </mxCell>
        <mxCell id="bvm1Z8GQnfWaPhaKX7ed-23" value="&lt;font color=&quot;#ffffff&quot;&gt;&lt;span style=&quot;font-size: 25px;&quot;&gt;Limpieza&lt;/span&gt;&lt;/font&gt;" style="text;html=1;align=center;verticalAlign=middle;whiteSpace=wrap;rounded=0;" vertex="1" parent="1">
          <mxGeometry x="600" y="50" width="110" height="40" as="geometry" />
        </mxCell>
      </root>
    </mxGraphModel>
  </diagram>
</mxfile>
